<svg xmlns="http://www.w3.org/2000/svg" xmlns:xlink="http://www.w3.org/1999/xlink" viewBox="0 0 1314 404.3"><defs><style>.swa{clip-path:url(#sw-clip);}.swb{fill:#3d6bb2;}</style><clipPath id="sw-clip"><rect width="1314" height="404.3"/></clipPath></defs><g id="a" class="swa"><path class="swb" d="M501.9,317.3a5.19,5.19,0,0,0,5.1-5.1,5.12,5.12,0,0,0-5.1-5.1H211.8a5.1,5.1,0,1,0,0,10.2Z" transform="translate(-114 -170.6)"/><path class="swb" d="M564,291.4c-1.4-7.7-7.2-21.1-29.1-23.9a7.57,7.57,0,0,0-1.5-.1h-341a11.4,11.4,0,1,0,0,22.8H532.7c7,1.1,8.3,3.3,8.7,4.8l.3,1.8v.1c-.5.5-3.2,2.8-13.2,3.6A11.28,11.28,0,0,0,518,312.7c2.9,39-3.9,67.9-20.4,86-14.9,16.4-38.8,25-71.1,25.7H215.3L168.6,231.5a11.36,11.36,0,0,0-11.1-8.7H125.4a11.4,11.4,0,1,0,0,22.8h23l46.7,192.9a11.36,11.36,0,0,0,11.1,8.7h1.1a28.85,28.85,0,0,0-8.3,15.5c-2.2,12.8,2,21.2,5.9,26,7.6,9.3,21,13.9,40.8,14.3H478.4a11.35,11.35,0,1,0,.1-22.7H246c-17-.4-22.1-4.3-23.5-6-.5-.6-1.9-2.4-1-7.5.4-1.7,5.1-16.3,78.1-19.6H426.8c38.9-.7,68.4-11.9,87.7-33.1s28.3-52.2,26.9-92.5c11-2.7,18.2-8.1,21.5-16,.1-.3.2-.5.3-.8a28.311,28.311,0,0,0,1.6-9.2,12.17,12.17,0,0,0-.7-3.8C564.1,291.6,564,291.5,564,291.4Z" transform="translate(-114 -170.6)"/><path class="swb" d="M244.3,506.4a34,34,0,0,0-22.9,9,4.741,4.741,0,0,0-1,1,33.25,33.25,0,0,0-9,22.8,31.68,31.68,0,0,0,9.5,22.8c6.7,6.6,14.5,10,23.4,10a34.42,34.42,0,0,0,32.9-32.9c0-8.8-3.4-16.7-10-23.3A32,32,0,0,0,244.3,506.4Zm7.3,39.1a4.3,4.3,0,0,0-1,.9,7.45,7.45,0,0,1-6.2,2.8c-2,0-4.3-.4-7.2-3.3a8.7,8.7,0,0,1-2.8-6.6,9.58,9.58,0,0,1,10-9.9,8.82,8.82,0,0,1,6.7,2.7c2.9,2.9,3.3,5.3,3.3,7.2a7.73,7.73,0,0,1-2.8,6.2Z" transform="translate(-114 -170.6)"/><path class="swb" d="M459.6,506.4a34,34,0,0,0-22.9,9,4.741,4.741,0,0,0-1,1,33.25,33.25,0,0,0-9,22.8,31.68,31.68,0,0,0,9.5,22.8c6.6,6.6,14.5,10,23.4,10a29.47,29.47,0,0,0,22.8-10.1,30,30,0,0,0,10-22.8c0-8.8-3.4-16.7-10-23.3a31.65,31.65,0,0,0-22.8-9.4Zm7.2,39.1a7.641,7.641,0,0,0-.9.9,7.45,7.45,0,0,1-6.2,2.8c-2,0-4.3-.4-7.2-3.3a8.7,8.7,0,0,1-2.8-6.6,9.58,9.58,0,0,1,9.9-9.9,8.82,8.82,0,0,1,6.7,2.7c2.9,2.9,3.3,5.3,3.3,7.2a7.73,7.73,0,0,1-2.8,6.2Z" transform="translate(-114 -170.6)"/><path class="swb" d="M607.6,336.7c2.8,0,7.6,1.1,12.8,2.4,6,1.8,10,2.6,14.4,2.6,22,0,37.7-14.1,37.7-34.2,0-10.2-5.5-21.4-17.8-36.6-9.9-12.2-14.1-20.3-14.1-27.4,0-8.9,5.5-14.1,14.7-14.1,13.6,0,21.5,9.7,24.1,30.1h4.2l5.2-36.3h-3.7c-2.1,3.7-4,4.7-7.9,4.7-2.1,0-4.4-.5-9.4-1.8-6.6-2.1-10.2-2.6-14.7-2.6-19.4,0-31.7,11.3-31.7,28.8,0,8.3,5.5,19.6,16.5,33.7,10.2,13.4,14.7,22.5,14.7,30.1,0,12-7.9,20.1-19.4,20.1-14.7,0-22.5-10.8-26.7-35.6h-4.2l-5.2,41.6h4.2C603.7,337.7,604.7,336.7,607.6,336.7Z" transform="translate(-114 -170.6)"/><path class="swb" d="M725.9,341.6c18.4,0,29.6-8.6,52.7-41-5.5,21.5-6,23.6-6,30.1,0,7.6,3.2,10.7,10.5,10.7,10.4,0,16.7-4.9,36.3-28.6l-3.1-2.6-7.3,7.3c-8.1,8.3-11.2,10.7-13.6,10.7a3.57,3.57,0,0,1-3.7-3.4c0-5.2,11-50.2,23.3-94.9a47.079,47.079,0,0,0,1.6-5.5l-1.8-.8-16,1.8-.8.8-2.9,12.5c-2.1-9.7-9.7-15.2-21-15.2-34.8,0-74.9,47.5-74.9,89.1C699.2,330.9,709.1,341.6,725.9,341.6Zm15.5-88.3c11-15.9,23.3-24.8,34.3-24,8.9.5,14.7,6.8,14.7,15.9,0,21.9-13.4,52.8-31.2,72.1-6.3,7.1-15.2,11.5-22.8,11.5-9.4,0-15.2-7.3-15.2-19.3C721.2,295.4,730.4,269.8,741.4,253.3Z" transform="translate(-114 -170.6)"/><path class="swb" d="M949.9,311.5l-3.7-3.4c-1.8,2.4-3.7,4.7-5.5,6.8-7.6,9.7-12.3,13.9-16,13.9a4.1,4.1,0,0,1-4.2-4.2c0-2.1,1.1-7.1,3.7-16.5l14.9-53.8a58.347,58.347,0,0,0,2.4-14.9c0-9.4-7.1-15.9-17.3-15.9-16.7,0-33.2,15.9-60.2,57.5l17.4-57-.8-.5-42.4,8.1v4.2c13.4.3,16.8,1.9,16.8,7.1a20.426,20.426,0,0,1-.5,4.4l-25.1,91.5H849c12.3-41.3,14.7-47,26.2-64.8,15.8-24.3,29.1-37.1,38.8-37.1,3.9,0,6.3,2.9,6.3,7.6,0,3.2-1.6,11.8-3.7,19.9l-11.5,43.1c-3.4,13.6-4.2,17-4.2,19.6,0,9.9,3.7,14.1,12.3,14.1C925,341.2,931.6,335.9,949.9,311.5Z" transform="translate(-114 -170.6)"/><path class="swb" d="M1015.9,170.6c-7.1,0-12.3,5.8-12.3,13.9,0,8.4,5,13.9,12.6,13.9,6.8,0,12.8-6,12.8-13.4C1029,177.4,1023,170.6,1015.9,170.6Z" transform="translate(-114 -170.6)"/><path class="swb" d="M975.4,298.3c-4.2,15.7-5.8,23.3-5.8,28.5,0,9.7,4.1,14.9,12,14.9,12.3,0,21.7-7.9,36.8-29.8L1015,309c-11.3,14.9-17,20.4-21.5,20.4a4.25,4.25,0,0,1-4.2-3.9c0-4.2,2.6-12.1,4.2-17.3l23.1-84.2-.8-.5c-26.5,4.9-31.7,5.7-41.9,6.5v4.2c14.1.3,16.5,1.1,16.5,6.3A45.511,45.511,0,0,1,988,252Z" transform="translate(-114 -170.6)"/><path class="swb" d="M1089,309.9l-3.4-1.8c-12.8,16.4-17,20.6-21.2,20.6-3.4,0-5.3-3.1-3.7-6.5l23-87h22l1.3-8.4h-21l7.3-26.9-1.8-3.9h-.8c-1,0-1.8.8-3.1,2.4-9.9,13.1-26.4,26.7-34.8,28.8-6.6,2.1-8.4,3.6-8.4,6.5a5.131,5.131,0,0,0,.3,1.6h19.4l-20.4,77.4c-2.7,8.6-4.5,16.7-4.5,19.3,0,5.5,5.5,9.7,12.6,9.7C1063.8,341.7,1072.5,334.4,1089,309.9Z" transform="translate(-114 -170.6)"/><path class="swb" d="M1180.1,330.7c0,7.6,3.2,10.7,10.5,10.7,10.5,0,16.8-4.9,36.4-28.6l-3.1-2.6-7.3,7.3c-8.1,8.3-11.2,10.7-13.6,10.7a3.57,3.57,0,0,1-3.7-3.4c0-5.2,11-50.2,23.3-94.9a47.1,47.1,0,0,0,1.6-5.5l-1.8-.8-16,1.8-.8.8-2.9,12.5c-2.1-9.7-9.7-15.2-21-15.2-34.8,0-74.9,47.5-74.9,89.1,0,18.3,9.9,29,26.7,29,18.3,0,29.5-8.6,52.6-41C1180.6,322.1,1180.1,324.2,1180.1,330.7Zm-13.3-13.4c-6.3,7.1-15.2,11.5-22.8,11.5-9.4,0-15.2-7.3-15.2-19.3,0-14.1,9.2-39.7,20.2-56.2,11-15.9,23.3-24.8,34.3-24,8.9.5,14.6,6.8,14.7,15.9,0,21.9-13.4,52.8-31.2,72.1Z" transform="translate(-114 -170.6)"/><path class="swb" d="M1270.2,329.4a4.25,4.25,0,0,1-4.2-3.9c0-4.2,2.6-12.1,4.2-17.3l23-84.2-.8-.5c-26.5,4.9-31.7,5.7-41.9,6.5v4.2c14.1.3,16.5,1.1,16.5,6.3a45.517,45.517,0,0,1-2.4,11.5L1252,298.3c-4.2,15.7-5.8,23.3-5.8,28.5,0,9.7,4.1,14.9,12,14.9,12.3,0,21.7-7.9,36.9-29.8l-3.4-2.9C1280.4,323.9,1274.6,329.4,1270.2,329.4Z" transform="translate(-114 -170.6)"/><path class="swb" d="M1292.4,170.6c-7.1,0-12.3,5.8-12.3,13.9,0,8.4,5,13.9,12.6,13.9,6.8,0,12.9-6,12.8-13.4C1305.5,177.4,1299.5,170.6,1292.4,170.6Z" transform="translate(-114 -170.6)"/><path class="swb" d="M1401.7,223.5c-6,0-13.1,3.9-19.9,11-10.7,11.3-21.2,26.4-25.4,36.9l-3.7,9.4,13.9-56.7-.8-.5-40.6,7.1v4.4c8.1,0,18.1-1.3,18.1,6,0,3.6,0,3.6-4.2,21.4l-21.2,76.3h19.9c13.4-43.9,17.6-54.4,29.1-73.7,9.2-16,16.8-24.6,21.5-24.6,1.8,0,2.9,1.1,4.2,3.7,2.1,4.4,4.2,5.7,9.4,5.7,7.8,0,12-4.7,12-13.1C1414,229,1409,223.5,1401.7,223.5Z" transform="translate(-114 -170.6)"/><path class="swb" d="M818.7,375.3a14.129,14.129,0,0,0-5.3-4.2,15.13,15.13,0,0,0-6.2-1.4,16.049,16.049,0,0,0-6.4,1.4,17.851,17.851,0,0,0-5.9,4.2,26.79,26.79,0,0,0-4.8,7.1,39.16,39.16,0,0,0-3.1,10L764.1,526.2q-6.3-29.1-12.5-58t-12.7-58q-2.25-9.6-4.8-17.1a53.669,53.669,0,0,0-6.2-12.7,25.55,25.55,0,0,0-8.2-7.9,21.119,21.119,0,0,0-10.8-2.7,20.44,20.44,0,0,0-12,3.4,27.79,27.79,0,0,0-8.2,9.1,61.934,61.934,0,0,0-5.4,13c-1.4,4.9-2.6,9.9-3.7,15L655.1,526.4,632.3,394.1a48.178,48.178,0,0,0-3.1-11,28.106,28.106,0,0,0-4.5-7.5,16.86,16.86,0,0,0-5.5-4.3,14.15,14.15,0,0,0-5.9-1.4,14,14,0,0,0-6.8,1.7,20.48,20.48,0,0,0-5.8,4.9,24,24,0,0,0-4.1,7.6,31.15,31.15,0,0,0-1.5,9.9,38.234,38.234,0,0,0,.8,7.5L623,535.9c2.5,12.4,6,21.6,10.6,27.5s10.8,8.8,18.7,8.8a27.43,27.43,0,0,0,13-2.9,26,26,0,0,0,9.1-8.1,47,47,0,0,0,6.3-12.7,144.53,144.53,0,0,0,4.5-16.8l24.1-115.2,23.1,109.9a183.765,183.765,0,0,0,5.3,20.3,56.071,56.071,0,0,0,6.7,14.3,27.44,27.44,0,0,0,9,8.4,24.319,24.319,0,0,0,12.1,2.8,23.5,23.5,0,0,0,12.2-3.1,27.43,27.43,0,0,0,8.7-8.6,49.643,49.643,0,0,0,6.1-13.1,141.39,141.39,0,0,0,4.3-16.5l26-129.8a44.7,44.7,0,0,0,1-9.3,30.167,30.167,0,0,0-1.4-9.5,24.323,24.323,0,0,0-3.7-7Z" transform="translate(-114 -170.6)"/><path class="swb" d="M861.6,432.2c-6.3,0-10.8,2.4-13.4,7.1s-3.9,11.5-3.9,20.3v85.2c0,8.8,1.3,15.6,3.9,20.3s7,7.1,13.4,7.1c6.8,0,11.6-2.4,14.5-7.1s4.4-11.5,4.4-20.3V459.6c0-8.8-1.5-15.6-4.4-20.3S868.3,432.2,861.6,432.2Z" transform="translate(-114 -170.6)"/><path class="swb" d="M876.1,368.7a17.871,17.871,0,0,0-6.3-3.6,20.45,20.45,0,0,0-7.3-1.3,22.608,22.608,0,0,0-7.9,1.4,17.229,17.229,0,0,0-6.2,3.9,18.931,18.931,0,0,0-4.1,5.9,18.61,18.61,0,0,0-1.5,7.5A17.964,17.964,0,0,0,855,400a20.759,20.759,0,0,0,7.5,1.3,22.8,22.8,0,0,0,7.3-1.2,17.87,17.87,0,0,0,6.3-3.6,17.561,17.561,0,0,0,4.4-5.9,18.591,18.591,0,0,0,1.7-8.1,17.678,17.678,0,0,0-1.7-8A18.19,18.19,0,0,0,876.1,368.7Z" transform="translate(-114 -170.6)"/><path class="swb" d="M1009.5,442.5a33.39,33.39,0,0,0-26.2-12.9,42.29,42.29,0,0,0-13.4,2.2,44.311,44.311,0,0,0-11.6,6.1,40.68,40.68,0,0,0-9.1,9.4,43.111,43.111,0,0,0-5.9,12.2c0-8.8-1.5-15.6-4.4-20.3s-7.8-7.1-14.5-7.1c-6.3,0-10.8,2.4-13.4,7.1s-3.9,11.5-3.9,20.3l.2,85c0,8.8,1.3,15.6,3.9,20.3s7,7.1,13.4,7.1c6.8,0,11.6-2.4,14.5-7.1s4.4-11.5,4.4-20.3V486.9a41.872,41.872,0,0,1,1.8-12.9,27.367,27.367,0,0,1,4.9-9.3,21.18,21.18,0,0,1,16.4-7.5,15.91,15.91,0,0,1,7.2,1.7,16.73,16.73,0,0,1,5.8,4.9,25,25,0,0,1,3.9,8.2,43.848,43.848,0,0,1,1.4,11.6v61c0,8.8,1.3,15.6,3.9,20.3s7,7.1,13.4,7.1c6.8,0,11.6-2.4,14.5-7.1s4.4-11.5,4.4-20.3V481.7a74.918,74.918,0,0,0-3.2-22.9A49,49,0,0,0,1009.5,442.5Z" transform="translate(-114 -170.6)"/><path class="swb" d="M1148.1,537.6l-29.8-44.4c4.6-5.3,9.1-10.5,13.6-15.5s8.9-10.1,13.4-15.3a60.248,60.248,0,0,0,4.9-6.4,13,13,0,0,0,2.3-7.5,17.113,17.113,0,0,0-1.4-6.7,21.481,21.481,0,0,0-3.7-5.7,18.531,18.531,0,0,0-5.3-4,13.31,13.31,0,0,0-6-1.5c-3.2,0-6.6,1.5-10,4.4a62.553,62.553,0,0,0-9.9,10.9c-5.3,7-10.6,13.9-15.8,20.7s-10.5,13.6-15.8,20.5h-.2V397.4c0-8.8-1.5-15.6-4.4-20.3s-7.8-7.1-14.5-7.1c-6.3,0-10.8,2.4-13.4,7.1s-3.9,11.5-3.9,20.3V545c0,8.8,1.3,15.6,3.9,20.3s7,7.1,13.4,7.1c6.8,0,11.6-2.4,14.5-7.1s4.4-11.5,4.4-20.3V498.5c5.5,9,10.9,18,16.3,26.9s10.9,17.9,16.3,26.9a45.74,45.74,0,0,0,5.3,7.7,50.139,50.139,0,0,0,6.1,6.1,34.854,34.854,0,0,0,6.2,4.1,13.06,13.06,0,0,0,5.6,1.5,13.29,13.29,0,0,0,5.7-1.4,18,18,0,0,0,4.9-3.8,18.934,18.934,0,0,0,3.5-5.6,16.63,16.63,0,0,0-1-14.9C1151.7,543.2,1150,540.4,1148.1,537.6Z" transform="translate(-114 -170.6)"/><path class="swb" d="M1269.4,450.1a51.271,51.271,0,0,0-17.5-14.8c-7.1-3.7-15.4-5.5-25.1-5.5a54.56,54.56,0,0,0-24.6,5.6,59.46,59.46,0,0,0-19.3,15.2,68.831,68.831,0,0,0-12.7,22.7,85.769,85.769,0,0,0-4.5,28.1c0,12,1.6,22.5,4.7,31.6a63.521,63.521,0,0,0,13,22.7,55.39,55.39,0,0,0,19.6,13.6,63,63,0,0,0,24.3,4.6,124.8,124.8,0,0,0,14.5-1,60.68,60.68,0,0,0,14.4-3.5,44.509,44.509,0,0,0,12-7,24.42,24.42,0,0,0,7.5-11.1,18.351,18.351,0,0,0,.8-5.3,15.2,15.2,0,0,0-2.3-8.3,6.92,6.92,0,0,0-6-3.5,6,6,0,0,0-2.6.7c-2.9,1.2-5.8,2.4-8.5,3.5s-5.5,2.1-8.2,3a59.346,59.346,0,0,1-8.3,2.1,52.231,52.231,0,0,1-9.1.8c-10,0-17.4-3.1-22.3-9.3s-7.5-14.9-7.9-26.1h70.2c3.6,0,6.5-.9,8.5-2.8s3.1-4.7,3.1-8.5a98.8,98.8,0,0,0-3.4-25.9,63.591,63.591,0,0,0-10.3-21.6Zm-68.1,39a56,56,0,0,1,2.2-13.3,35.544,35.544,0,0,1,5.2-10.9,25.26,25.26,0,0,1,7.9-7.4,20.05,20.05,0,0,1,10.3-2.7,22.519,22.519,0,0,1,10.9,2.6,23.51,23.51,0,0,1,7.9,7.2,35.263,35.263,0,0,1,5,10.9,57,57,0,0,1,2.1,13.6Z" transform="translate(-114 -170.6)"/><path class="swb" d="M1322.5,370.2c-6.3,0-10.8,2.4-13.4,7.1s-3.9,11.5-3.9,20.3V544.8c0,8.8,1.3,15.6,3.9,20.3s7,7.1,13.4,7.1c6.8,0,11.6-2.4,14.5-7.1s4.4-11.5,4.4-20.3V397.6c0-8.8-1.5-15.6-4.4-20.3S1329.2,370.2,1322.5,370.2Z" transform="translate(-114 -170.6)"/></g></svg>